# xmcd CD database file
# Copyright (C) 1997 Ti Kan
# 
# Track frame offsets:
#     183
#     14323
#     28968
#     60978
#     72400
#     85903
#     98693
#     112455
#     126290
#     139583
#     153613
#     169455
#     182808
#     193050
#     205060
#     214988
# 
# Disc length: 3263 seconds
# 
# Revision: 1
# Processed by: cddbd v1.4b41PL1 Copyright (c) Steve Scherf et al.
# Submitted via: DiscPlay 4.0.3
# 
DISCID=f30cbd10
DTITLE=JOE TEX - GRAND MASTER OF SOUL
DYEAR=1900
DGENRE=
TTITLE0=SKINNY LEGGS AND ALL
TTITLE1=HOLD WHAT YOU`VE GOT
TTITLE2=LOOSE CABOOSE
TTITLE3=I GOTCHA
TTITLE4=PAPA WAS TOO
TTITLE5=S.Y.S.L.J.F.M.
TTITLE6=ONE MONKEY DON`T STOP NO SHOW
TTITLE7=I BELIEVE I`M GONNA MAKE IT
TTITLE8=THE LOVE YOU SAVE
TTITLE9=I`VE GOT TO DO A LITTLE BIT BETTER
TTITLE10=BUYING A BOOK
TTITLE11=SHOW ME
TTITLE12=YOU GOT WHAT IT TAKES
TTITLE13=A SWEET WOMAN LIKE YOU
TTITLE14=I WANT TO
TTITLE15=AINT'T GONNA BUMP NO MORE
EXTD=
EXTT0=
EXTT1=
EXTT2=
EXTT3=
EXTT4=
EXTT5=
EXTT6=
EXTT7=
EXTT8=
EXTT9=
EXTT10=
EXTT11=
EXTT12=
EXTT13=
EXTT14=
EXTT15=
PLAYORDER=
